<svg width="560" height="407" viewBox="0 0 560 407" fill="none" xmlns="http://www.w3.org/2000/svg">
<path d="M103.594 98.5256C57.3709 109.443 35.9384 88.0634 31 76.0091C57.1325 153.532 86.5567 166.075 141.373 151.953C228.782 167.44 212.424 138.801 228.782 121.724C251.004 98.5256 233.226 106.031 251.004 87.6085C268.783 69.1859 246.525 49.2116 251.004 41.8931C257.14 31.8689 230.686 65.1867 228.782 59.6334L162.854 114.219C162.361 104.439 149.817 87.6085 103.594 98.5256Z" fill="url(#paint0_linear_25_562)"/>
<path d="M160.247 311.219C164.389 273.324 149.645 173.555 141.756 128.407L137.318 103.983H148.413C148.413 114.098 149.448 134.328 153.59 134.328C157.732 134.328 164.685 120.019 167.643 112.865H173.56C169.123 121.006 158.916 138.177 153.59 141.73C146.933 146.17 167.643 219.443 173.56 219.443C178.294 219.443 187.86 145.924 192.052 109.164H200.927C199.941 126.927 195.158 170.595 183.916 203.16C172.673 235.726 181.697 319.361 187.614 357.107H148.791C148.656 357.134 148.53 357.133 148.413 357.107H148.791C151.206 356.622 156.324 347.112 160.247 311.219Z" fill="url(#paint1_linear_25_562)"/>
<ellipse cx="132.02" cy="28.4375" rx="57.4" ry="28.4375" fill="#CCEFFD"/>
<ellipse cx="195.16" cy="44.6876" rx="57.4" ry="28.4375" fill="#CCEFFD"/>
<ellipse cx="229.6" cy="62.2917" rx="57.4" ry="28.4375" fill="#CCEFFD"/>
<ellipse cx="97.5799" cy="51.4583" rx="57.4" ry="28.4375" fill="#CCEFFD"/>
<ellipse cx="145.413" cy="101.563" rx="57.4" ry="28.4375" fill="#CCEFFD"/>
<ellipse cx="57.4" cy="89.375" rx="57.4" ry="29.7916" fill="#CCEFFD"/>
<ellipse cx="196.116" cy="90.729" rx="81.3167" ry="39.2708" fill="#CCEFFD"/>
<path d="M286.975 248.194C261.521 253.236 249.719 243.362 247 237.795C261.39 273.598 277.593 279.391 307.778 272.869C355.911 280.022 346.903 266.795 355.911 258.909C368.148 248.194 358.358 251.661 368.148 243.152C377.938 234.644 365.681 225.419 368.148 222.039C371.526 217.41 356.959 232.797 355.911 230.232L319.607 255.442C319.335 250.925 312.428 243.152 286.975 248.194Z" fill="url(#paint2_linear_25_562)"/>
<path d="M330.744 356.585C328.53 337.86 335.5 289.209 339 266.194L341 260.19L343 254.186H337.07C337.07 259.184 336.516 269.18 334.302 269.18C332.088 269.18 328.372 262.11 326.791 258.575H323.628C326 262.598 332 269.697 334.302 272.838C336.774 276.21 329.953 310.723 326.791 310.723C324.26 310.723 315.984 274.91 313.744 256.746H309C315.5 263.693 312.764 286.862 318.093 303.191C323 318.228 319.279 360.607 316.116 379.258H336.868C336.94 379.272 337.007 379.271 337.07 379.258H336.868C335.577 379.019 332.841 374.32 330.744 356.585Z" fill="url(#paint3_linear_25_562)"/>
<ellipse cx="310.519" cy="203.185" rx="25.0082" ry="17.3293" fill="#E2F7FF"/>
<ellipse cx="338.028" cy="213.087" rx="25.0082" ry="17.3293" fill="#E2F7FF"/>
<ellipse cx="353.033" cy="223.815" rx="25.0082" ry="17.3293" fill="#E2F7FF"/>
<ellipse cx="291" cy="217.162" rx="30" ry="17.0111" fill="#E2F7FF"/>
<ellipse cx="316.354" cy="247.746" rx="25.0082" ry="17.3293" fill="#E2F7FF"/>
<ellipse cx="270.5" cy="240.177" rx="32.5" ry="18.0118" fill="#E2F7FF"/>
<ellipse cx="348" cy="241.178" rx="45" ry="24.0157" fill="#E2F7FF"/>
<path d="M395.046 179.654C360.633 186.657 344.677 172.943 341 165.211C360.456 214.938 382.362 222.983 423.172 213.925C488.247 223.859 476.069 205.489 488.247 194.535C504.792 179.654 491.556 184.468 504.792 172.651C518.028 160.834 501.457 148.022 504.792 143.328C509.359 136.898 489.665 158.269 488.247 154.707L439.165 189.721C438.797 183.447 429.459 172.651 395.046 179.654Z" fill="url(#paint4_linear_25_562)"/>
<path opacity="0.9" d="M437.157 344.802C440.255 316.457 429.227 241.83 423.325 208.059L420.006 189.79H428.304C428.304 197.356 429.079 212.488 432.177 212.488C435.275 212.488 440.476 201.785 442.689 196.433H447.115C443.796 202.523 436.161 215.367 432.177 218.024C427.198 221.346 442.689 276.154 447.115 276.154C450.656 276.154 457.627 221.165 460.946 193.665H467.586C462 196.433 465.5 201.652 463.5 210.158C459 225.668 459.931 245.944 457.627 264.693C454.484 290.272 453.201 350.892 457.627 379.126H428.587C428.487 379.147 428.392 379.146 428.304 379.126H428.587C430.394 378.763 434.222 371.65 437.157 344.802Z" fill="url(#paint5_linear_25_562)"/>
<path d="M454.278 245.103C455.522 237.909 451.944 210.135 450 197.148L451.167 196.149L457 231.615C455.574 239.108 453.033 252.296 454.278 245.103Z" fill="#789FC5"/>
<ellipse cx="424.555" cy="129.25" rx="46.3366" ry="30.2502" fill="#D6F1FC"/>
<ellipse cx="478.614" cy="138.417" rx="51.6832" ry="32.0836" fill="#D6F1FC"/>
<ellipse cx="506.535" cy="150.792" rx="53.4653" ry="23.3752" fill="#D6F1FC"/>
<ellipse cx="395.446" cy="150.334" rx="44.5545" ry="32.0836" fill="#D6F1FC"/>
<ellipse cx="432.57" cy="183.555" rx="44.4357" ry="23.7411" fill="#D6F1FC"/>
<ellipse cx="380.594" cy="173.251" rx="60.5941" ry="24.7502" fill="#D6F1FC"/>
<ellipse cx="476.238" cy="170.042" rx="67.1287" ry="27.9586" fill="#D6F1FC"/>
<path d="M229.85 367.828C224.597 368.244 225.837 375.963 227.114 379.77H249C244.805 375.616 235.102 367.413 229.85 367.828Z" fill="#3E79B5"/>
<path d="M259.924 369.281C252.168 366.939 238.911 380 250.656 380L292 380C285.747 375.738 283.417 376.377 259.924 369.281Z" fill="#3E79B5"/>
<path d="M336.258 349.436C320.56 350.244 318.313 369.968 319.151 379.728H364.937C361.919 369.294 351.956 348.628 336.258 349.436Z" fill="#3E79B5"/>
<path d="M395.629 331.261C383.554 327.222 380.87 361.89 381.038 379.728H407.705C408.711 365.255 407.705 335.3 395.629 331.261Z" fill="#3E79B5"/>
<path d="M300.057 345.073C277.811 336.368 279.521 368.561 280.481 379.728H332.877C329.422 367.791 316.805 351.626 300.057 345.073Z" fill="#3E79B5"/>
<path d="M368 324.279C331.247 292.915 351.11 359.32 351.302 379.728H381.819C382.97 363.171 378.662 333.377 368 324.279Z" fill="#3E79B5"/>
<path d="M211.85 367.828C206.597 368.244 207.837 375.963 209.114 379.77H231C226.805 375.616 217.102 367.413 211.85 367.828Z" fill="#5A8DC1"/>
<path d="M241.924 369.281C234.168 366.939 220.911 380 232.656 380L274 380C267.747 375.738 265.417 376.377 241.924 369.281Z" fill="#5A8DC1"/>
<path d="M318.258 349.579C302.56 350.39 300.313 370.198 301.151 380H346.937C343.919 369.522 333.956 348.767 318.258 349.579Z" fill="#5A8DC1"/>
<path d="M377.629 331.326C365.554 327.27 362.87 362.085 363.038 380H389.705C390.711 365.465 389.705 335.382 377.629 331.326Z" fill="#5A8DC1"/>
<path d="M282.057 345.196C259.811 336.455 261.521 368.786 262.481 380H314.877C311.422 368.012 298.805 351.778 282.057 345.196Z" fill="#5A8DC1"/>
<path d="M350 324.314C313.247 292.816 333.11 359.505 333.302 380H363.819C364.97 363.372 360.662 333.451 350 324.314Z" fill="#5A8DC1"/>
<path d="M340 334C343 338.572 349 355.215 349 371.486C349 377.93 349 377.43 349 380" stroke="#3E79B5"/>
<ellipse rx="1.99895" ry="4.98466" transform="matrix(0.924756 -0.380561 0.382909 0.923786 338.757 331.33)" fill="#3E79B5"/>
<ellipse rx="1.99883" ry="4.98497" transform="matrix(0.873351 0.487092 -0.489412 0.872053 345.757 336.312)" fill="#3E79B5"/>
<ellipse rx="1.99883" ry="4.98497" transform="matrix(0.825148 0.564917 -0.567109 0.823643 350.848 355.24)" fill="#3E79B5"/>
<ellipse rx="1.99574" ry="4.99271" transform="matrix(0.756612 -0.653864 0.656535 0.754296 343.128 348.61)" fill="#3E79B5"/>
<ellipse rx="1.99574" ry="4.99271" transform="matrix(0.638595 -0.769543 0.771796 0.63587 345.128 369.535)" fill="#3E79B5"/>
<path d="M372 353.863C375 356.439 381 363.88 381 373.043C381 382.207 381 380.058 381 377.839" stroke="#3E79B5"/>
<ellipse rx="1.99791" ry="4.98727" transform="matrix(0.842849 -0.538149 0.540903 0.841085 370.757 351.258)" fill="#3E79B5"/>
<ellipse rx="1.99883" ry="4.98497" transform="matrix(0.915476 0.402372 -0.404804 0.914404 379.848 356.237)" fill="#3E79B5"/>
<ellipse rx="1.99883" ry="4.98497" transform="matrix(0.915476 0.402372 -0.404804 0.914404 382.848 374.172)" fill="#3E79B5"/>
<ellipse rx="1.99517" ry="4.99413" transform="matrix(0.5733 -0.819346 0.821277 0.570529 376.245 366.319)" fill="#3E79B5"/>
<path d="M282 350C282.999 352.982 285.064 358.125 284.998 364.423C284.892 374.708 284.832 377.692 284.832 380" stroke="#3E79B5"/>
<ellipse rx="1.99791" ry="4.98727" transform="matrix(0.842849 -0.538149 0.540903 0.841085 279.382 346.27)" fill="#3E79B5"/>
<ellipse rx="1.99883" ry="4.98497" transform="matrix(0.832287 0.554346 -0.556556 0.83081 287.848 358.363)" fill="#3E79B5"/>
<ellipse rx="1.99883" ry="4.98497" transform="matrix(0.855612 0.517618 -0.519891 0.854233 287.302 374.293)" fill="#3E79B5"/>
<ellipse rx="1.99517" ry="4.99413" transform="matrix(0.677563 -0.735465 0.737749 0.675075 281.245 367.484)" fill="#3E79B5"/>
<path d="M269 362C270.996 363.789 275 370 274.995 375.326C274.994 377.274 275.001 378.842 275 380" stroke="#3E79B5"/>
<ellipse rx="1.99623" ry="4.99149" transform="matrix(0.690048 -0.723763 0.726239 0.687442 267.003 359.876)" fill="#3E79B5"/>
<ellipse rx="1.99947" ry="4.98336" transform="matrix(0.962666 0.270691 -0.272502 0.962155 274.283 363.336)" fill="#3E79B5"/>
<ellipse rx="1.99428" ry="4.99634" transform="matrix(0.599189 -0.800608 0.802342 0.596864 271.278 375.399)" fill="#3E79B5"/>
<path d="M318 354C321 356.584 326.5 363 327 373.249C327.254 378.446 327 378.938 327 380" stroke="#3E79B5"/>
<ellipse rx="1.99791" ry="4.98727" transform="matrix(0.842849 -0.538149 0.540903 0.841085 316.382 351.162)" fill="#3E79B5"/>
<ellipse rx="1.99883" ry="4.98497" transform="matrix(0.971862 0.235549 -0.238132 0.971233 325.13 356.312)" fill="#3E79B5"/>
<ellipse rx="1.99883" ry="4.98497" transform="matrix(0.915476 0.402372 -0.404804 0.914404 328.848 374.138)" fill="#3E79B5"/>
<ellipse rx="1.99517" ry="4.99413" transform="matrix(0.440652 -0.897678 0.899161 0.437618 321.87 366.223)" fill="#3E79B5"/>
<path d="M187 327.44H164.2V356.84H132.6V327.44H57.2V305.64L123.2 216.84H157.2L96 301.04H133.6V274.84H164.2V301.04H187V327.44ZM256.691 359.24C245.091 359.24 234.757 356.374 225.691 350.64C216.624 344.907 209.491 336.64 204.291 325.84C199.224 314.907 196.691 301.907 196.691 286.84C196.691 271.774 199.224 258.84 204.291 248.04C209.491 237.107 216.624 228.774 225.691 223.04C234.757 217.307 245.091 214.44 256.691 214.44C268.291 214.44 278.624 217.307 287.691 223.04C296.757 228.774 303.824 237.107 308.891 248.04C314.091 258.84 316.691 271.774 316.691 286.84C316.691 301.907 314.091 314.907 308.891 325.84C303.824 336.64 296.757 344.907 287.691 350.64C278.624 356.374 268.291 359.24 256.691 359.24ZM256.691 331.84C265.224 331.84 271.891 328.174 276.691 320.84C281.624 313.507 284.091 302.174 284.091 286.84C284.091 271.507 281.624 260.174 276.691 252.84C271.891 245.507 265.224 241.84 256.691 241.84C248.291 241.84 241.624 245.507 236.691 252.84C231.891 260.174 229.491 271.507 229.491 286.84C229.491 302.174 231.891 313.507 236.691 320.84C241.624 328.174 248.291 331.84 256.691 331.84ZM460.633 327.44H437.833V356.84H406.233V327.44H330.833V305.64L396.833 216.84H430.833L369.633 301.04H407.233V274.84H437.833V301.04H460.633V327.44Z" fill="#21232D"/>
<path d="M60.8498 368.015C55.5972 368.432 56.8374 376.179 58.1141 380H80C75.8052 375.831 66.1024 367.598 60.8498 368.015Z" fill="#3E79B5"/>
<path d="M90.9239 369.257C83.1681 366.913 69.9107 379.982 81.6557 379.982L123 379.982C116.747 375.718 114.417 376.357 90.9239 369.257Z" fill="#3E79B5"/>
<path d="M167.258 349.579C151.56 350.39 149.313 370.198 150.151 380H195.937C192.919 369.522 182.956 348.767 167.258 349.579Z" fill="#3E79B5"/>
<path d="M226.629 331.326C214.554 327.27 211.87 362.085 212.038 380H238.705C239.711 365.465 238.705 335.382 226.629 331.326Z" fill="#3E79B5"/>
<path d="M131.297 345.126C109.018 336.387 110.73 368.705 111.691 379.916H164.166C160.706 367.932 148.07 351.704 131.297 345.126Z" fill="#3E79B5"/>
<path d="M199.341 324.252C162.533 292.766 182.426 359.428 182.618 379.916H213.18C214.333 363.294 210.018 333.385 199.341 324.252Z" fill="#3E79B5"/>
<path d="M43.0172 368.015C37.5362 368.432 38.8303 376.179 40.1625 380H63C58.6228 375.831 48.4982 367.598 43.0172 368.015Z" fill="#5A8DC1"/>
<path d="M72.2266 369.281C64.3022 366.939 50.7566 380 62.7569 380L105 380C98.6109 375.738 96.2301 376.377 72.2266 369.281Z" fill="#5A8DC1"/>
<path d="M149.258 349.579C133.56 350.39 131.313 370.198 132.151 380H177.937C174.919 369.522 164.956 348.767 149.258 349.579Z" fill="#5A8DC1"/>
<path d="M208.629 331.326C196.554 327.27 193.87 362.085 194.038 380H220.705C221.711 365.465 220.705 335.382 208.629 331.326Z" fill="#5A8DC1"/>
<path d="M113.057 345.196C90.8114 336.455 92.5209 368.786 93.4806 380H145.877C142.422 368.012 129.805 351.778 113.057 345.196Z" fill="#5A8DC1"/>
<path d="M181 324.314C144.247 292.816 164.11 359.505 164.302 380H194.819C195.97 363.372 191.662 333.451 181 324.314Z" fill="#5A8DC1"/>
<path d="M171 333.952C174 338.528 180 351.749 180 368.031C180 375 180 378.449 180 380" stroke="#3E79B5"/>
<ellipse rx="2.00019" ry="5.00279" transform="matrix(0.924184 -0.381947 0.381521 0.92436 169.757 331.335)" fill="#3E79B5"/>
<ellipse rx="2.00021" ry="5.00274" transform="matrix(0.914844 0.403808 -0.403366 0.915039 176.757 336.339)" fill="#3E79B5"/>
<ellipse rx="2.00021" ry="5.00274" transform="matrix(0.914844 0.403808 -0.403366 0.915039 181.848 355.348)" fill="#3E79B5"/>
<ellipse rx="2.00078" ry="5.00133" transform="matrix(0.636986 -0.770876 0.770466 0.637481 174.128 348.689)" fill="#3E79B5"/>
<ellipse rx="2.00078" ry="5.00133" transform="matrix(0.636986 -0.770876 0.770466 0.637481 176.128 369.703)" fill="#3E79B5"/>
<path d="M203 354C206 356.584 212 370.473 212 375.188C212 379 212 378.938 212 380" stroke="#3E79B5"/>
<ellipse rx="2.00038" ry="5.00232" transform="matrix(0.841809 -0.539776 0.539276 0.842129 201.757 351.348)" fill="#3E79B5"/>
<ellipse rx="2.00021" ry="5.00274" transform="matrix(0.914844 0.403808 -0.403366 0.915039 209.848 358.385)" fill="#3E79B5"/>
<ellipse rx="2.00021" ry="5.00274" transform="matrix(0.809218 0.587509 -0.587118 0.809501 214.848 373.385)" fill="#3E79B5"/>
<ellipse rx="2.00088" ry="5.00107" transform="matrix(0.571663 -0.820489 0.820138 0.572166 207.245 367.503)" fill="#3E79B5"/>
<path d="M109 349C112 351.584 118 361 118 368.249C118 377.446 118 377.438 118 380" stroke="#3E79B5"/>
<ellipse rx="2.00038" ry="5.00232" transform="matrix(0.841809 -0.539776 0.539276 0.842129 107.382 346.292)" fill="#3E79B5"/>
<ellipse rx="2.00021" ry="5.00274" transform="matrix(0.984628 0.174662 -0.174187 0.984713 116.841 355.276)" fill="#3E79B5"/>
<ellipse rx="2.00021" ry="5.00274" transform="matrix(0.867354 0.497692 -0.497273 0.867594 120.223 374.336)" fill="#3E79B5"/>
<ellipse rx="2.00088" ry="5.00107" transform="matrix(0.571663 -0.820489 0.820138 0.572166 114.245 367.503)" fill="#3E79B5"/>
<path d="M98.0029 364C101.003 365.69 106 369 107.001 376.586C107.288 378.767 107 379 107 380" stroke="#3E79B5"/>
<ellipse rx="2.00069" ry="5.00155" transform="matrix(0.68851 -0.725227 0.724777 0.688983 95.0025 360.897)" fill="#3E79B5"/>
<ellipse rx="2.0001" ry="5.00303" transform="matrix(0.996271 -0.0862793 0.08662 0.996241 104.283 365.328)" fill="#3E79B5"/>
<ellipse rx="2.00104" ry="5.00067" transform="matrix(0.635345 -0.772228 0.771893 0.635752 103.131 375.724)" fill="#3E79B5"/>
<path d="M149 354C152 356.584 158.5 365.5 158 375.249C157.918 376.849 158 378.5 158 380" stroke="#3E79B5"/>
<ellipse rx="2.00038" ry="5.00232" transform="matrix(0.841809 -0.539776 0.539276 0.842129 147.382 351.252)" fill="#3E79B5"/>
<ellipse rx="2.00021" ry="5.00274" transform="matrix(0.892052 0.451932 -0.451501 0.89227 156.472 356.253)" fill="#3E79B5"/>
<ellipse rx="2.00021" ry="5.00274" transform="matrix(0.791827 0.610745 -0.610363 0.792122 161.12 372.356)" fill="#3E79B5"/>
<ellipse rx="2.00088" ry="5.00107" transform="matrix(0.571663 -0.820489 0.820138 0.572166 153.245 365.503)" fill="#3E79B5"/>
<path d="M522.15 367.99C527.403 368.407 526.163 376.159 524.886 379.982H503C507.195 375.811 516.898 367.573 522.15 367.99Z" fill="#3E79B5"/>
<path d="M492.076 369.257C499.832 366.913 513.089 379.982 501.344 379.982L460 379.982C466.253 375.718 468.583 376.357 492.076 369.257Z" fill="#3E79B5"/>
<path d="M540.15 368.015C545.403 368.432 544.163 376.179 542.886 380H521C525.195 375.831 534.898 367.598 540.15 368.015Z" fill="#5A8DC1"/>
<path d="M510.076 369.281C517.832 366.939 531.089 380 519.344 380L478 380C484.253 375.738 486.583 376.377 510.076 369.281Z" fill="#5A8DC1"/>
<path d="M433.742 349.579C449.44 350.39 451.687 370.198 450.849 380H405.063C408.081 369.522 418.044 348.767 433.742 349.579Z" fill="#5A8DC1"/>
<path d="M374.371 331.326C386.446 327.27 389.13 362.085 388.962 380H362.295C361.289 365.465 362.295 335.382 374.371 331.326Z" fill="#5A8DC1"/>
<path d="M469.943 345.196C492.189 336.455 490.479 368.786 489.519 380H437.123C440.578 368.012 453.195 351.778 469.943 345.196Z" fill="#5A8DC1"/>
<path d="M402 324.314C438.753 292.816 418.89 359.505 418.698 380H388.181C387.03 363.372 391.338 333.451 402 324.314Z" fill="#5A8DC1"/>
<path d="M412 333.952C409 338.528 401.121 358.086 402.5 369.031C403 373 404.5 378 404.5 380" stroke="#3E79B5"/>
<ellipse rx="2.00019" ry="5.00279" transform="matrix(-0.887457 -0.460891 -0.460481 0.88767 413.243 331.335)" fill="#3E79B5"/>
<ellipse rx="2.00021" ry="5.00274" transform="matrix(-0.84996 0.526847 0.526437 0.850214 406.243 336.339)" fill="#3E79B5"/>
<ellipse rx="2.00021" ry="5.00274" transform="matrix(-0.914844 0.403808 0.403366 0.915039 401.152 355.348)" fill="#3E79B5"/>
<ellipse rx="2.00078" ry="5.00133" transform="matrix(-0.727432 -0.68618 -0.685712 0.727873 408.872 348.689)" fill="#3E79B5"/>
<ellipse rx="2.00078" ry="5.00133" transform="matrix(-0.741823 -0.670596 -0.670119 0.742254 406.872 369.703)" fill="#3E79B5"/>
<path d="M380 354C377 356.584 370.5 366 371 373.249C371.207 376.252 371 378.438 371 380" stroke="#3E79B5"/>
<ellipse rx="2.00038" ry="5.00232" transform="matrix(-0.841809 -0.539776 -0.539276 0.842129 381.243 351.348)" fill="#3E79B5"/>
<ellipse rx="2.00021" ry="5.00274" transform="matrix(-0.914844 0.403808 0.403366 0.915039 372.152 356.349)" fill="#3E79B5"/>
<ellipse rx="2.00021" ry="5.00274" transform="matrix(-0.914844 0.403808 0.403366 0.915039 369.152 374.36)" fill="#3E79B5"/>
<ellipse rx="2.00088" ry="5.00107" transform="matrix(-0.571663 -0.820489 -0.820138 0.572166 375.755 366.474)" fill="#3E79B5"/>
<path d="M474 354C471 356.584 465 366.482 465 373.249C465 378.5 465 377.938 465 380" stroke="#3E79B5"/>
<ellipse rx="2.00038" ry="5.00232" transform="matrix(-0.841809 -0.539776 -0.539276 0.842129 475.618 351.252)" fill="#3E79B5"/>
<ellipse rx="2.00021" ry="5.00274" transform="matrix(-0.914844 0.403808 0.403366 0.915039 466.848 356.385)" fill="#3E79B5"/>
<ellipse rx="2.00021" ry="5.00274" transform="matrix(-0.914844 0.403808 0.403366 0.915039 462.848 373.385)" fill="#3E79B5"/>
<ellipse rx="2.00088" ry="5.00107" transform="matrix(-0.571663 -0.820489 -0.820138 0.572166 470.245 365.503)" fill="#3E79B5"/>
<path d="M486.17 363.134C483.153 364.81 478.5 370.5 477.121 375.621C476.659 377.337 476.5 379.5 476.5 380" stroke="#3E79B5"/>
<ellipse rx="2.00069" ry="5.00155" transform="matrix(-0.399262 -0.916837 -0.916576 0.399861 489.383 361.834)" fill="#3E79B5"/>
<ellipse rx="2.0001" ry="5.00303" transform="matrix(-0.999784 0.0207665 0.0204247 0.999791 479.256 365.099)" fill="#3E79B5"/>
<ellipse rx="2.00104" ry="5.00067" transform="matrix(-0.671725 -0.740801 -0.740447 0.672115 480.047 375.843)" fill="#3E79B5"/>
<path d="M434 354C431 356.584 426.5 365 425 373.249C424.227 377.5 425 378 425 380" stroke="#3E79B5"/>
<ellipse rx="2.00038" ry="5.00232" transform="matrix(-0.793487 -0.608587 -0.608115 0.793849 435.619 351.252)" fill="#3E79B5"/>
<ellipse rx="2.00021" ry="5.00274" transform="matrix(-0.974772 0.223201 0.22273 0.97488 427.064 356.324)" fill="#3E79B5"/>
<ellipse rx="2.00021" ry="5.00274" transform="matrix(-0.914844 0.403808 0.403366 0.915039 422.848 374.385)" fill="#3E79B5"/>
<ellipse rx="2.00088" ry="5.00107" transform="matrix(-0.571663 -0.820489 -0.820138 0.572166 430.245 366.503)" fill="#3E79B5"/>
<path d="M278.456 156.284L275.241 157.322L275.297 155.085L278.456 156.284Z" fill="#367BC1"/>
<path d="M261 162.923C265.117 158.804 271.292 150.977 274.585 153.861C278.118 156.954 273.762 164.159 261 162.923Z" fill="#367BC1"/>
<ellipse cx="273.35" cy="155.709" rx="0.823357" ry="0.823896" fill="white"/>
<path d="M269.378 155.297L263.614 149.118C262.956 153.072 264.712 156.807 265.673 158.181L269.378 155.297Z" fill="#367BC1"/>
<path d="M272.144 159.89L276.251 167.279C272.287 166.693 269.274 163.872 268.263 162.536L272.144 159.89Z" fill="#367BC1"/>
<path d="M321.972 125.245L319.214 126.135L319.262 124.216L321.972 125.245Z" fill="#5485B7"/>
<path d="M307 130.939C310.531 127.406 315.827 120.693 318.652 123.166C321.681 125.819 317.946 131.999 307 130.939Z" fill="#5485B7"/>
<circle cx="317.592" cy="124.751" r="0.706166" fill="white"/>
<path d="M314.185 124.398L309.242 119.098C308.677 122.49 310.184 125.693 311.008 126.871L314.185 124.398Z" fill="#5485B7"/>
<path d="M316.558 128.337L320.08 134.674C316.681 134.172 314.097 131.753 313.229 130.606L316.558 128.337Z" fill="#5485B7"/>
<path d="M308.774 97.5044L306.789 98.1447L306.824 96.7641L308.774 97.5044Z" fill="#7296BA"/>
<path d="M298 101.602C300.541 99.0595 304.352 94.2286 306.385 96.0084C308.565 97.9174 305.877 102.365 298 101.602Z" fill="#7296BA"/>
<circle cx="305.623" cy="97.1488" r="0.508177" fill="white"/>
<path d="M303.171 96.895L299.613 93.0811C299.207 95.522 300.291 97.8272 300.884 98.6747L303.171 96.895Z" fill="#7296BA"/>
<path d="M304.878 99.7295L307.413 104.29C304.966 103.928 303.107 102.188 302.483 101.363L304.878 99.7295Z" fill="#7296BA"/>
<defs>
<linearGradient id="paint0_linear_25_562" x1="94.705" y1="95.114" x2="111.235" y2="157.923" gradientUnits="userSpaceOnUse">
<stop stop-color="#82ADD6"/>
<stop offset="0.661458" stop-color="#B0D5E9"/>
<stop offset="1" stop-color="#C7E9F3"/>
</linearGradient>
<linearGradient id="paint1_linear_25_562" x1="169.123" y1="103.983" x2="169.123" y2="357.127" gradientUnits="userSpaceOnUse">
<stop stop-color="#5B8CC1"/>
<stop offset="1" stop-color="#4C7288"/>
</linearGradient>
<linearGradient id="paint2_linear_25_562" x1="282.08" y1="246.619" x2="288.608" y2="276.195" gradientUnits="userSpaceOnUse">
<stop stop-color="#B0C8DF"/>
<stop offset="1" stop-color="#D8F0F8"/>
</linearGradient>
<linearGradient id="paint3_linear_25_562" x1="326" y1="254.186" x2="326" y2="379.268" gradientUnits="userSpaceOnUse">
<stop stop-color="#8EA5BD"/>
<stop offset="1" stop-color="#618498"/>
</linearGradient>
<linearGradient id="paint4_linear_25_562" x1="388.428" y1="177.466" x2="397.718" y2="218.438" gradientUnits="userSpaceOnUse">
<stop stop-color="#8CB3D8"/>
<stop offset="1" stop-color="#CFEEF8"/>
</linearGradient>
<linearGradient id="paint5_linear_25_562" x1="443.796" y1="189.79" x2="443.796" y2="379.141" gradientUnits="userSpaceOnUse">
<stop stop-color="#729BC8"/>
<stop offset="1" stop-color="#54788C"/>
</linearGradient>
</defs>
</svg>
